<svg xmlns="http://www.w3.org/2000/svg" width="146.217" height="30.101" viewBox="0 0 146.217 30.101"><g transform="translate(94.062 -384.764)"><path d="M-82.485,406.1l-.736-2.244,2.646-.869,2.075-5.192-3.949-2.342,3.949-10.38,2.177.836-3.248,8.538,1.942,1.173,1.406-3.517,2.177.873-3.617,9.04,2.679-.906.739,2.211Zm.335,6.63-.871-2.179,8.238-3.278.871,2.175Zm22.2.567h-5.459a7.231,7.231,0,0,1-5.759-2.342l-.9,3.315-2.277-.6,2.881-10.414,2.242.6-1.136,4.152a4.881,4.881,0,0,0,2.776,2.646v-8.94h-6.5v-2.344h14v2.344H-65.24v3.315h4.219v2.344H-65.24v3.582h5.29Zm-1.708-16.237H-72.172V386.008h10.514Zm-2.344-8.7h-5.826v1.975H-64Zm-5.826,6.359H-64v-2.042h-5.826Z" transform="translate(12.71 0.361)" fill="#fafafa"/><path d="M-49.963,398.119h-7.9l8.737,12.42-1.942,1.338L-58.937,400.7v13.827h-2.342V400.528l-8.27,11.381-1.875-1.371,8.972-12.42h-7.8v-2.344h8.974V384.826h2.342v10.949h8.974ZM-66.905,393.3l-1.473-7.132,2.279-.469,1.506,7.132Zm13.56,0-2.309-.469,1.575-7.132,2.275.5Z" transform="translate(26.541 0.073)" fill="#fafafa"/><path d="M-56.9,412.951l-2.344-.2.836-10.245,2.344.2Zm15.166-13.026H-57V385.6h15.268Zm-12.924-8.336h4.186v-3.65h-4.186Zm0,5.994h4.186v-3.65h-4.186Zm15.9,15.066h-14.9V402.537h2.342v7.771h12.557Zm-7.232-5.055h-2.344v-5.057h2.344Zm1.91-19.654h-4.052v3.65h4.052Zm0,9.643v-3.65h-4.052v3.65Zm3.113,10.01h-2.344v-5.057h2.344Z" transform="translate(40.824 0.975)" fill="#fafafa"/><path d="M-44.634,414.563l-2.311-.2,2.009-22.23h-3.48v-2.344h3.582v-4.855h2.342l-.033,4.855h4.855v2.344h-4.955l-.434,4.953h4.419V414.7h-2.344V399.43h-2.309Zm10.28-19.789-2.344-.367,1.538-9.643,2.346.369-.771,4.686h7.9v2.344h-8.268Zm6.126,20.091c-.367-.973-2.479-11.753-2.981-15.937l-2.444.367V409.64l2.746-1.24.971,2.144L-36,413.29v-16l9.978-1.573.369,2.309-3.283.537c.167,1.338.6,3.952,1.071,6.628l2.679-1.873,1.34,1.907-3.515,2.477c.569,3.115,1.138,5.861,1.338,6.363Z" transform="translate(53.516 0)" fill="#fafafa"/><path d="M-33.582,414.575l-2.344-.067.836-26.419h8.538v-3.278h2.344v3.278H-16v2.346H-32.813ZM-16.374,398.7h-7.432v4.086h5.49V413H-30.3V402.79h4.151V392.443h2.344v3.919h7.432ZM-27.96,410.658h7.3v-5.527h-7.3Z" transform="translate(68.16 0.055)" fill="#fafafa"/><path d="M-79.665,409.577l.011-6.107h4.3V392.052l-4.284-.009.007-3.826h5.592v-2.344H-93.528v2.344h5.492l0,3.81-4.173-.009v11.451h4.154l-.009,6.107h-5.994v2.344H-73.5v-2.344ZM-77.7,394.4v6.732h-1.955l.011-6.737Zm-4.3,6.732h-3.717l.011-6.754,3.715.011Zm-3.7-12.911h3.717l-.007,3.821-3.715-.006Zm-4.178,12.911v-6.765l1.825,0-.011,6.76Zm4.143,8.449.011-6.107H-82l-.011,6.107Z" transform="translate(0 1.301)" fill="#fafafa"/></g></svg>