<?xml version="1.0" encoding="utf-8"?>
<!-- Generator: Adobe Illustrator 23.1.1, SVG Export Plug-In . SVG Version: 6.00 Build 0)  -->
<svg version="1.1" id="圖層_1" xmlns="http://www.w3.org/2000/svg" xmlns:xlink="http://www.w3.org/1999/xlink" x="0px" y="0px"
	 viewBox="0 0 20 20" style="enable-background:new 0 0 20 20;" xml:space="preserve">
<style type="text/css">
	.st0{fill:#133466;}
</style>
<g id="XMLID_1684_">
	<path id="XMLID_1689_" class="st0" d="M10,2.62c2.4,0,2.69,0.01,3.64,0.05c0.88,0.04,1.35,0.19,1.67,0.31
		c0.42,0.16,0.72,0.36,1.03,0.67c0.32,0.32,0.51,0.61,0.67,1.03c0.12,0.32,0.27,0.79,0.31,1.67c0.04,0.95,0.05,1.23,0.05,3.64
		s-0.01,2.69-0.05,3.64c-0.04,0.88-0.19,1.35-0.31,1.67c-0.16,0.42-0.36,0.72-0.67,1.03c-0.31,0.31-0.61,0.51-1.03,0.67
		c-0.32,0.12-0.79,0.27-1.67,0.31c-0.95,0.04-1.23,0.05-3.64,0.05c-2.4,0-2.69-0.01-3.64-0.05c-0.88-0.04-1.35-0.19-1.67-0.31
		c-0.42-0.16-0.72-0.36-1.03-0.67c-0.31-0.31-0.51-0.61-0.67-1.03c-0.12-0.32-0.27-0.79-0.31-1.67C2.63,12.69,2.62,12.4,2.62,10
		s0.01-2.69,0.05-3.64c0.04-0.88,0.19-1.35,0.31-1.67c0.16-0.42,0.36-0.72,0.67-1.03c0.31-0.31,0.61-0.51,1.03-0.67
		c0.32-0.12,0.79-0.27,1.67-0.31C7.31,2.63,7.6,2.62,10,2.62 M10,1C7.56,1,7.25,1.01,6.29,1.05C5.33,1.1,4.68,1.25,4.1,1.47
		C3.51,1.7,3.01,2.01,2.51,2.51s-0.81,1-1.04,1.59C1.25,4.68,1.1,5.33,1.05,6.29C1.01,7.25,1,7.56,1,10c0,2.44,0.01,2.75,0.05,3.71
		c0.04,0.96,0.2,1.61,0.42,2.18c0.23,0.59,0.54,1.09,1.04,1.59c0.5,0.5,1,0.81,1.59,1.04c0.57,0.22,1.23,0.37,2.18,0.42
		C7.25,18.99,7.56,19,10,19c2.44,0,2.75-0.01,3.71-0.05c0.96-0.04,1.61-0.2,2.18-0.42c0.59-0.23,1.09-0.54,1.59-1.04
		c0.5-0.5,0.81-1,1.04-1.59c0.22-0.57,0.37-1.23,0.42-2.18C18.99,12.75,19,12.44,19,10c0-2.44-0.01-2.75-0.05-3.71
		c-0.04-0.96-0.2-1.61-0.42-2.18c-0.23-0.59-0.54-1.09-1.04-1.59c-0.5-0.5-1-0.81-1.59-1.04c-0.57-0.22-1.23-0.37-2.18-0.42
		C12.75,1.01,12.44,1,10,1"/>
	<path id="XMLID_1686_" class="st0" d="M10,5.38c-2.55,0-4.62,2.07-4.62,4.62c0,2.55,2.07,4.62,4.62,4.62
		c2.55,0,4.62-2.07,4.62-4.62C14.62,7.45,12.55,5.38,10,5.38 M10,13c-1.66,0-3-1.34-3-3c0-1.66,1.34-3,3-3s3,1.34,3,3
		C13,11.66,11.66,13,10,13"/>
	<path id="XMLID_1685_" class="st0" d="M15.88,5.2c0,0.6-0.48,1.08-1.08,1.08c-0.6,0-1.08-0.48-1.08-1.08c0-0.6,0.48-1.08,1.08-1.08
		C15.4,4.12,15.88,4.6,15.88,5.2"/>
</g>
</svg>
