<?xml version="1.0" encoding="utf-8"?>
<!-- Generator: Adobe Illustrator 24.2.3, SVG Export Plug-In . SVG Version: 6.00 Build 0)  -->
<svg version="1.1" id="圖層_1" xmlns="http://www.w3.org/2000/svg" xmlns:xlink="http://www.w3.org/1999/xlink" x="0px" y="0px"
	 viewBox="0 0 210 130" style="enable-background:new 0 0 210 130;" xml:space="preserve">
<style type="text/css">
	.st0{fill:#FFFFFF;}
</style>
<g>
	<path class="st0" d="M104.03,111.11c-27.96,16.63-64.1,7.44-80.73-20.52C6.67,62.63,15.86,26.49,43.81,9.86
		c8.06-4.79,16.79-7.43,25.54-8.11c-12-0.59-24.3,2.23-35.4,8.83C3.91,28.45-5.97,67.31,11.91,97.36
		c17.88,30.06,56.73,39.93,86.79,22.06c11.1-6.6,19.44-16.06,24.65-26.89C118.58,99.9,112.09,106.32,104.03,111.11z"/>
	<g>
		<g>
			<path class="st0" d="M62.87,40.56h-9.11v-0.38c0.25-0.01,0.6-0.05,1.06-0.12c0.46-0.07,0.83-0.21,1.11-0.41
				c0.32-0.24,0.52-0.53,0.59-0.88c0.07-0.35,0.13-0.88,0.16-1.59c0.03-0.83,0.06-1.71,0.09-2.65c0.02-0.93,0.04-1.66,0.05-2.17
				h-9.73c0.01,0.63,0.02,1.52,0.02,2.66c0.01,1.14,0.02,1.84,0.02,2.09c0.02,0.83,0.1,1.42,0.22,1.77
				c0.12,0.35,0.37,0.63,0.74,0.83c0.31,0.16,0.67,0.28,1.08,0.34c0.41,0.06,0.72,0.1,0.95,0.12v0.38H41.1v-0.38
				c0.25-0.01,0.59-0.05,1.04-0.12c0.45-0.07,0.81-0.21,1.08-0.41c0.36-0.27,0.61-0.58,0.75-0.91s0.23-0.89,0.26-1.64
				c0.07-1.52,0.1-3.24,0.1-5.16c0-2.67-0.02-4.55-0.05-5.63c-0.02-0.76-0.09-1.33-0.21-1.72c-0.11-0.39-0.3-0.67-0.55-0.83
				c-0.28-0.19-0.69-0.32-1.22-0.4c-0.53-0.08-0.95-0.12-1.24-0.13v-0.38h8.96v0.38c-0.23,0.02-0.56,0.06-0.98,0.14
				c-0.42,0.07-0.76,0.2-1.03,0.37c-0.36,0.22-0.59,0.52-0.67,0.89c-0.08,0.37-0.13,0.94-0.15,1.72c-0.03,0.96-0.05,1.56-0.06,1.82
				c0,0.26-0.01,0.75-0.02,1.46s-0.02,1.16-0.02,1.33h9.73c0.02,0,0-1.53-0.09-4.59c-0.02-0.8-0.07-1.38-0.15-1.74
				c-0.08-0.36-0.31-0.67-0.68-0.91c-0.13-0.12-0.33-0.21-0.6-0.27s-0.53-0.12-0.78-0.15s-0.44-0.05-0.57-0.06
				c-0.13,0-0.23-0.01-0.3-0.01v-0.38h9.21v0.38c-0.27,0.02-0.66,0.09-1.17,0.19s-0.9,0.25-1.18,0.45
				c-0.33,0.21-0.54,0.54-0.64,0.96c-0.1,0.43-0.16,0.94-0.17,1.55c-0.08,2.17-0.12,3.99-0.12,5.46c0,2.27,0.04,4.03,0.12,5.29
				c0.06,0.95,0.17,1.58,0.34,1.89c0.17,0.31,0.44,0.58,0.82,0.8c0.16,0.08,0.48,0.16,0.93,0.23c0.46,0.07,0.81,0.12,1.07,0.14
				V40.56z"/>
			<path class="st0" d="M82.73,31.64c0,1.71-0.43,3.25-1.29,4.63c-0.86,1.38-2.03,2.46-3.52,3.24c-1.49,0.78-3.12,1.18-4.9,1.18
				c-1.35,0-2.63-0.21-3.84-0.63c-1.21-0.42-2.25-1.03-3.14-1.83c-0.88-0.8-1.57-1.76-2.05-2.88c-0.48-1.12-0.72-2.34-0.72-3.67
				c0-1.74,0.44-3.3,1.31-4.65c0.87-1.36,2.05-2.42,3.55-3.18s3.14-1.14,4.95-1.14c1.4,0,2.71,0.21,3.92,0.64
				c1.21,0.43,2.24,1.04,3.09,1.83s1.51,1.73,1.96,2.83C82.51,29.12,82.73,30.32,82.73,31.64z M78.81,31.6
				c0-0.96-0.12-1.9-0.35-2.81c-0.23-0.91-0.56-1.68-0.97-2.31c-1.11-1.82-2.57-2.73-4.37-2.73c-0.77,0-1.47,0.14-2.09,0.42
				c-0.62,0.28-1.18,0.67-1.66,1.18c-0.48,0.51-0.88,1.1-1.19,1.78c-0.62,1.47-0.93,2.98-0.93,4.55c0,1.86,0.42,3.53,1.25,5.01
				c0.54,0.94,1.21,1.66,2,2.18c0.79,0.52,1.65,0.78,2.58,0.78c2.03,0,3.6-1.07,4.71-3.22C78.47,35.05,78.81,33.45,78.81,31.6z"/>
			<path class="st0" d="M103.06,22.79l-1.29,4.57l-0.3-0.04c0.01-0.09,0.03-0.23,0.05-0.42c0.02-0.19,0.03-0.36,0.03-0.51
				c0-0.51-0.15-0.88-0.46-1.11s-0.92-0.36-1.84-0.37h-4.34c-0.03,0-0.04,2.32-0.04,6.96c0,0.62,0,1.2,0,1.75s0,1.25,0.01,2.11
				c0.01,0.86,0.02,1.46,0.03,1.8c0.05,0.68,0.13,1.2,0.24,1.55s0.35,0.62,0.73,0.82c0.24,0.11,0.61,0.21,1.1,0.27
				s0.87,0.12,1.12,0.14v0.36h-9.33v-0.36c0.27-0.04,0.63-0.09,1.1-0.17s0.84-0.17,1.12-0.28c0.38-0.19,0.63-0.47,0.75-0.83
				s0.21-0.88,0.26-1.54c0.03-1.06,0.04-2.93,0.04-5.59c0-1.82,0-3.23-0.01-4.24c-0.01-1-0.02-1.92-0.03-2.76h-4.38
				c-0.78,0.04-1.4,0.21-1.84,0.51c-0.16,0.1-0.3,0.21-0.41,0.34s-0.2,0.27-0.28,0.42c-0.08,0.15-0.16,0.31-0.24,0.47
				c-0.08,0.16-0.15,0.35-0.23,0.55l-0.36-0.08l1.29-4.4l0.27,0.06c0.03,0.13,0.08,0.24,0.15,0.34c0.08,0.1,0.28,0.19,0.63,0.27
				c0.34,0.08,0.86,0.11,1.55,0.11h11.22c1.24,0,2.05-0.04,2.45-0.12c0.39-0.08,0.7-0.31,0.93-0.69L103.06,22.79z"/>
			<path class="st0" d="M138.96,34.09c-0.13,0.66-0.35,1.64-0.66,2.96c-0.32,1.31-0.64,2.4-0.97,3.28h-14.71v-0.52
				c0.42-0.03,0.98-0.11,1.68-0.25c0.7-0.14,1.2-0.39,1.51-0.76c0.4-0.48,0.63-1.4,0.66-2.77c0.03-0.87,0.04-2.46,0.04-4.76
				c0-1.95-0.01-3.26-0.04-3.93c-0.03-0.92-0.1-1.61-0.22-2.06c-0.12-0.45-0.41-0.81-0.86-1.09c-0.21-0.15-0.58-0.28-1.08-0.4
				s-0.9-0.19-1.18-0.23v-0.51h10.09v0.51c-0.33,0.03-0.78,0.09-1.35,0.21c-0.57,0.11-0.99,0.28-1.25,0.49
				c-0.35,0.29-0.58,0.64-0.67,1.06c-0.09,0.42-0.17,1.11-0.22,2.09c-0.05,0.9-0.08,2.18-0.08,3.85c0,4.65,0.1,7.08,0.3,7.3
				c0.63,0.46,1.67,0.68,3.11,0.68c1.39,0,2.48-0.41,3.26-1.23c0.4-0.4,0.81-0.98,1.21-1.73c0.4-0.75,0.73-1.53,0.97-2.35
				L138.96,34.09z"/>
			<path class="st0" d="M105.09,40.65c0.44,0,0.82-0.16,1.14-0.47c0.32-0.32,0.48-0.7,0.5-1.14V24.75c-0.05-0.6-0.33-1.04-0.85-1.33
				c-0.26-0.14-0.52-0.21-0.8-0.21h-0.33v-0.26h7.21c0.75,0,1.41-0.06,1.97-0.18c0.56-0.12,0.93-0.21,1.1-0.28v4.49h-0.28v-0.31
				c0.02-0.77-0.2-1.39-0.65-1.86c-0.45-0.47-1.06-0.72-1.83-0.76h-1.69v7.46h4.08c0.63-0.02,1.15-0.23,1.56-0.65
				c0.41-0.42,0.62-0.94,0.62-1.55v-0.23h0.23V35h-0.23v-0.2c0-0.63-0.21-1.15-0.62-1.56c-0.41-0.41-0.92-0.62-1.54-0.64h-4.1v7.21
				h5c1.25,0,2.3-0.36,3.14-1.08c0.85-0.72,1.48-1.73,1.88-3.05h0.26l-1.21,5.23h-14.9v-0.26H105.09z"/>
		</g>
		<g>
			<path class="st0" d="M86.84,61.51c-0.13,0.68-0.36,1.7-0.69,3.06c-0.33,1.36-0.66,2.49-1,3.39H69.95v-0.54
				c0.43-0.03,1.01-0.11,1.73-0.25c0.73-0.14,1.24-0.4,1.56-0.78c0.42-0.5,0.65-1.45,0.69-2.86c0.03-0.9,0.04-2.54,0.04-4.92
				c0-2.01-0.01-3.37-0.04-4.06c-0.03-0.96-0.1-1.66-0.23-2.13c-0.12-0.46-0.42-0.84-0.89-1.13c-0.22-0.16-0.59-0.29-1.12-0.41
				c-0.52-0.12-0.93-0.2-1.21-0.24v-0.53H80.9v0.53c-0.34,0.03-0.8,0.1-1.39,0.22c-0.59,0.12-1.02,0.29-1.29,0.51
				c-0.37,0.3-0.6,0.67-0.7,1.1c-0.1,0.43-0.17,1.15-0.23,2.16c-0.05,0.93-0.08,2.25-0.08,3.98c0,4.81,0.1,7.32,0.31,7.54
				c0.65,0.47,1.72,0.71,3.21,0.71c1.44,0,2.56-0.42,3.37-1.27c0.42-0.42,0.84-1.01,1.25-1.78c0.42-0.77,0.75-1.58,1-2.43
				L86.84,61.51z"/>
			<path class="st0" d="M137.25,50.14l-1.29,4.57l-0.3-0.04c0.01-0.09,0.03-0.23,0.05-0.42c0.02-0.19,0.03-0.36,0.03-0.51
				c0-0.51-0.15-0.87-0.45-1.11c-0.3-0.23-0.92-0.36-1.84-0.37h-4.34c-0.03,0-0.04,2.32-0.04,6.95c0,0.62,0,1.2,0,1.75
				c0,0.55,0,1.25,0.01,2.11s0.02,1.46,0.03,1.8c0.05,0.68,0.13,1.2,0.24,1.54c0.11,0.35,0.35,0.62,0.73,0.82
				c0.24,0.11,0.61,0.21,1.1,0.27c0.49,0.07,0.87,0.12,1.12,0.14v0.36h-9.32v-0.36c0.27-0.04,0.63-0.09,1.1-0.17
				s0.84-0.17,1.12-0.28c0.38-0.19,0.63-0.47,0.75-0.83c0.12-0.37,0.21-0.88,0.26-1.53c0.03-1.06,0.04-2.92,0.04-5.59
				c0-1.82,0-3.23-0.01-4.23s-0.02-1.92-0.03-2.76h-4.38c-0.78,0.04-1.4,0.21-1.84,0.51c-0.16,0.1-0.3,0.21-0.41,0.34
				s-0.2,0.27-0.28,0.42c-0.08,0.15-0.16,0.31-0.24,0.47s-0.15,0.35-0.23,0.55l-0.36-0.08l1.29-4.4l0.27,0.06
				c0.03,0.13,0.08,0.24,0.15,0.34c0.08,0.1,0.28,0.19,0.63,0.27s0.86,0.11,1.55,0.11h11.22c1.24,0,2.05-0.04,2.44-0.12
				c0.39-0.08,0.7-0.31,0.93-0.69L137.25,50.14z"/>
			<path class="st0" d="M207,62.63c0,1.05-0.3,1.98-0.89,2.79s-1.41,1.44-2.46,1.87c-1.05,0.43-2.2,0.64-3.47,0.64
				c-0.97,0-1.83-0.13-2.59-0.39c-0.75-0.26-1.27-0.48-1.56-0.65l-0.47,0.78h-0.45l-0.4-5.4l0.55-0.08
				c0.25,1.12,0.68,2.13,1.27,3.03c0.37,0.48,0.85,0.89,1.44,1.23s1.31,0.51,2.14,0.51c0.59,0,1.18-0.11,1.75-0.34
				c0.57-0.23,1.04-0.58,1.39-1.07c0.35-0.49,0.53-1.09,0.53-1.81c0-0.86-0.21-1.48-0.62-1.87c-0.41-0.39-1.2-0.89-2.36-1.51
				c-0.81-0.42-1.5-0.78-2.07-1.08c-0.57-0.3-1.11-0.66-1.6-1.07c-0.49-0.41-0.89-0.91-1.19-1.51s-0.45-1.3-0.45-2.12
				c0-0.81,0.24-1.55,0.72-2.24c0.48-0.68,1.16-1.23,2.04-1.63c0.88-0.4,1.85-0.61,2.91-0.61c0.64,0,1.2,0.04,1.66,0.13
				c0.46,0.09,0.89,0.19,1.28,0.3c0.39,0.11,0.66,0.18,0.8,0.19c0.2,0,0.35-0.05,0.45-0.15c0.1-0.1,0.17-0.18,0.21-0.25h0.42
				l0.19,4.62l-0.53,0.04c-0.19-0.71-0.33-1.23-0.44-1.56c-0.1-0.33-0.3-0.67-0.59-0.99c-0.43-0.53-0.89-0.89-1.38-1.08
				c-0.49-0.19-1.07-0.28-1.74-0.28c-0.78,0-1.47,0.22-2.07,0.66c-0.59,0.44-0.89,1.13-0.89,2.07c0,0.49,0.12,0.92,0.35,1.27
				c0.23,0.35,0.57,0.68,1.01,0.97c0.44,0.29,0.9,0.56,1.38,0.81c0.2,0.1,0.76,0.38,1.67,0.84c0.91,0.46,1.65,0.89,2.21,1.3
				c0.56,0.4,1.01,0.91,1.35,1.51C206.83,61.12,207,61.82,207,62.63z"/>
			<path class="st0" d="M52.43,67.94c0.44,0,0.82-0.16,1.14-0.47c0.31-0.31,0.48-0.69,0.5-1.14V52.12c-0.05-0.6-0.33-1.04-0.84-1.33
				c-0.26-0.14-0.52-0.2-0.79-0.2H52.1v-0.25h7.17c0.75,0,1.4-0.06,1.97-0.18c0.56-0.12,0.93-0.21,1.1-0.28v4.47h-0.28v-0.31
				c0.02-0.77-0.2-1.38-0.65-1.85c-0.45-0.47-1.06-0.72-1.82-0.75h-1.68v7.43h4.06c0.63-0.02,1.15-0.23,1.56-0.65
				c0.41-0.42,0.61-0.93,0.61-1.54v-0.23h0.23v5.89h-0.23v-0.2c0-0.63-0.2-1.15-0.61-1.56c-0.41-0.41-0.92-0.62-1.53-0.64h-4.08
				v7.17h4.98c1.24,0,2.28-0.36,3.13-1.07c0.84-0.71,1.47-1.73,1.88-3.04h0.26l-1.2,5.21H52.1v-0.25H52.43z"/>
			<path class="st0" d="M139.29,67.94c0.44,0,0.82-0.16,1.14-0.47c0.31-0.31,0.48-0.69,0.5-1.14V52.12
				c-0.05-0.6-0.33-1.04-0.84-1.33c-0.26-0.14-0.52-0.2-0.79-0.2h-0.33v-0.25h7.17c0.75,0,1.4-0.06,1.97-0.18
				c0.56-0.12,0.93-0.21,1.1-0.28v4.47h-0.28v-0.31c0.02-0.77-0.2-1.38-0.65-1.85c-0.45-0.47-1.06-0.72-1.82-0.75h-1.68v7.43h4.06
				c0.63-0.02,1.15-0.23,1.56-0.65c0.41-0.42,0.61-0.93,0.61-1.54v-0.23h0.23v5.89h-0.23v-0.2c0-0.63-0.2-1.15-0.61-1.56
				c-0.41-0.41-0.92-0.62-1.53-0.64h-4.08v7.17h4.98c1.24,0,2.28-0.36,3.13-1.07c0.84-0.71,1.47-1.73,1.88-3.04h0.26l-1.2,5.21
				h-14.83v-0.25H139.29z"/>
			<path class="st0" d="M48.78,52.5c1.75,1.6,2.63,3.78,2.63,6.53c0,2.76-0.88,4.93-2.63,6.53c-1.75,1.6-4.13,2.4-7.15,2.4h-9.26
				v-0.25h0.33c0.44,0,0.82-0.16,1.14-0.47c0.31-0.31,0.48-0.69,0.5-1.14V51.81c-0.05-0.41-0.23-0.75-0.54-1.03
				c-0.31-0.28-0.67-0.42-1.1-0.42h-0.33V50.1h9.26C44.64,50.1,47.02,50.9,48.78,52.5z M41.3,66.89c1.22,0,2.28-0.32,3.18-0.96
				c0.89-0.64,1.58-1.55,2.05-2.73s0.71-2.57,0.71-4.17c0-2.41-0.53-4.33-1.6-5.74c-1.06-1.41-2.51-2.12-4.35-2.12h-3.14v15.72H41.3
				z"/>
			<path class="st0" d="M153.46,47.06c0.97-0.41,1.81-0.61,2.52-0.61c0.71,0,1.34,0.07,1.89,0.2c0.54,0.14,1.1,0.36,1.67,0.68
				c0.57,0.31,1.1,0.7,1.6,1.16c0.95,0.9,1.76,1.92,2.42,3.06l5.1,9.57l7.4-12.73h0.23l2.65,15.01c0.41,2.31,1.12,4.15,2.12,5.51
				c1,1.38,2.38,2.07,4.13,2.07c0.12,0,0.23,0,0.33,0v0.25c-0.94,0.26-1.85,0.38-2.76,0.38c-1.84,0-3.51-0.72-5.03-2.17
				c-1.46-1.38-2.46-3.39-2.99-6.05l-1.25-7.43l-4.8,8.32c-0.65,1.07-0.98,2.02-1,2.83h-0.23l-6.35-12.04l-1.25,10.21
				c-0.05,0.39,0.12,0.71,0.51,0.94c0.15,0.1,0.32,0.15,0.49,0.15h0.41v0.23h-5.33v-0.25h0.41c0.44,0,0.84-0.13,1.19-0.4
				c0.35-0.26,0.56-0.62,0.65-1.08l1.73-12.17c-0.77-1.36-1.64-2.57-2.63-3.62c-1.1-1.19-2.26-1.79-3.47-1.79
				c-0.12,0-0.23,0.01-0.33,0.03L153.46,47.06z"/>
			<path class="st0" d="M184.09,67.71c0.44,0,0.82-0.16,1.14-0.47c0.31-0.31,0.48-0.69,0.5-1.14V51.94
				c-0.02-0.44-0.18-0.82-0.5-1.12c-0.32-0.31-0.69-0.46-1.14-0.46h-0.33V50.1h7.76l-0.03,0.25h-0.31c-0.44,0-0.83,0.15-1.15,0.46
				c-0.32,0.31-0.49,0.68-0.49,1.12V66.1c0,0.44,0.16,0.82,0.49,1.14c0.32,0.32,0.71,0.47,1.15,0.47h0.31l0.03,0.25h-7.76v-0.25
				H184.09z"/>
			<path class="st0" d="M118.22,67.96h0.23v0.25h-8.14v-0.25h0.23c0.37,0,0.65-0.11,0.83-0.34c0.18-0.23,0.27-0.45,0.27-0.65
				c0-0.2-0.04-0.41-0.13-0.61l-1.25-3.14h-5.97l-1.33,3.14c-0.09,0.22-0.13,0.43-0.13,0.62c0,0.2,0.09,0.41,0.27,0.64
				c0.18,0.23,0.46,0.34,0.86,0.34h0.2v0.25H98.7v-0.25h0.23c0.39,0,0.78-0.12,1.17-0.36c0.39-0.24,0.71-0.6,0.97-1.07l5.89-13.35
				c0.8-1.68,1.22-2.8,1.28-3.34h0.23l7.58,16.64c0.25,0.49,0.58,0.86,0.97,1.11C117.41,67.84,117.81,67.96,118.22,67.96z
				 M104.72,62.15h5.1l-2.48-6.28L104.72,62.15z"/>
		</g>
	</g>
	<g>
		<path class="st0" d="M119.23,84.73l-0.34-1.03l1.22-0.4l0.96-2.39l-1.82-1.08l1.82-4.78l1,0.39l-1.5,3.93l0.89,0.54l0.65-1.62
			l1,0.4l-1.66,4.16l1.23-0.42l0.34,1.02L119.23,84.73z M119.39,87.78l-0.4-1l3.79-1.51l0.4,1L119.39,87.78z M129.6,88.04h-2.51
			c-0.79,0-1.82-0.14-2.65-1.08l-0.42,1.53l-1.05-0.28l1.33-4.79l1.03,0.28l-0.52,1.91c0.35,0.71,0.8,1.05,1.28,1.22v-4.11h-2.99
			v-1.08h6.44v1.08h-2.37v1.53h1.94v1.08h-1.94v1.65h2.44V88.04z M128.82,80.57h-4.84v-5.09h4.84V80.57z M127.74,76.56h-2.68v0.91
			h2.68V76.56z M125.06,79.49h2.68v-0.94h-2.68V79.49z"/>
		<path class="st0" d="M140.57,80.92h-3.64l4.02,5.72l-0.89,0.62l-3.62-5.15v6.37h-1.08v-6.44l-3.81,5.24l-0.86-0.63l4.13-5.72
			h-3.59v-1.08h4.13V74.8h1.08v5.04h4.13V80.92z M132.77,78.7l-0.68-3.28l1.05-0.22l0.69,3.28L132.77,78.7z M139.01,78.7l-1.06-0.22
			l0.72-3.28l1.05,0.23L139.01,78.7z"/>
		<path class="st0" d="M143.95,88.17l-1.08-0.09l0.39-4.72l1.08,0.09L143.95,88.17z M150.93,82.17h-7.03v-6.6h7.03V82.17z
			 M144.98,78.33h1.93v-1.68h-1.93V78.33z M144.98,81.09h1.93v-1.68h-1.93V81.09z M152.3,88.03h-6.86v-4.65h1.08v3.58h5.78V88.03z
			 M148.97,85.7h-1.08v-2.33h1.08V85.7z M149.85,76.65h-1.86v1.68h1.86V76.65z M149.85,81.09v-1.68h-1.86v1.68H149.85z M151.29,85.7
			h-1.08v-2.33h1.08V85.7z"/>
		<path class="st0" d="M155.44,88.46l-1.06-0.09l0.92-10.23h-1.6v-1.08h1.65v-2.24h1.08l-0.02,2.24h2.23v1.08h-2.28l-0.2,2.28h2.03
			v8.11h-1.08v-7.03h-1.06L155.44,88.46z M160.17,79.35l-1.08-0.17l0.71-4.44l1.08,0.17l-0.35,2.16h3.64v1.08h-3.81L160.17,79.35z
			 M162.99,88.6c-0.17-0.45-1.14-5.41-1.37-7.34l-1.13,0.17v4.76l1.26-0.57l0.45,0.99l-2.79,1.26v-7.37l4.59-0.72l0.17,1.06
			l-1.51,0.25c0.08,0.62,0.28,1.82,0.49,3.05l1.23-0.86l0.62,0.88l-1.62,1.14c0.26,1.43,0.52,2.7,0.62,2.93L162.99,88.6z"/>
		<path class="st0" d="M167.27,88.49l-1.08-0.03l0.39-12.16h3.93v-1.51h1.08v1.51h3.78v1.08h-7.74L167.27,88.49z M175.19,81.18
			h-3.42v1.88h2.53v4.7h-5.52v-4.7h1.91V78.3h1.08v1.8h3.42V81.18z M169.86,86.69h3.36v-2.54h-3.36V86.69z"/>
		<path class="st0" d="M114.68,86.76l0-2.81h1.98V78.7l-1.97,0l0-1.76h2.57v-1.08h-8.97v1.08h2.53l0,1.75l-1.92,0v5.27h1.91l0,2.81
			h-2.76v1.08h9.46v-1.08H114.68z M115.58,79.78v3.1h-0.9l0.01-3.1L115.58,79.78z M113.61,82.87h-1.71l0.01-3.11l1.71,0
			L113.61,82.87z M111.9,76.93h1.71l0,1.76l-1.71,0L111.9,76.93z M109.98,82.87v-3.11l0.84,0l-0.01,3.11H109.98z M111.89,86.76
			l0-2.81h1.71l0,2.81H111.89z"/>
	</g>
</g>
<g>
</g>
<g>
</g>
<g>
</g>
<g>
</g>
<g>
</g>
<g>
</g>
</svg>
